<?xml version="1.0" standalone="no"?>
<!DOCTYPE svg PUBLIC "-//W3C//DTD SVG 20010904//EN"
 "http://www.w3.org/TR/2001/REC-SVG-20010904/DTD/svg10.dtd">
<svg version="1.0" xmlns="http://www.w3.org/2000/svg"
 width="700.000000pt" height="700.000000pt" viewBox="0 0 700.000000 700.000000"
 preserveAspectRatio="xMidYMid meet">
<metadata>
Created by potrace 1.14, written by Peter Selinger 2001-2017
</metadata>
<g transform="translate(0.000000,700.000000) scale(0.100000,-0.100000)"
fill="#000000" stroke="none">
<path d="M1360 6164 c-36 -7 -108 -35 -160 -60 -134 -66 -238 -171 -304 -304
-82 -166 -76 14 -76 -2298 0 -1843 2 -2071 16 -2139 52 -255 247 -459 504
-530 62 -17 178 -18 2165 -18 2001 0 2103 1 2164 18 244 69 429 254 498 497
17 62 18 157 18 2165 0 2345 6 2146 -70 2300 -69 141 -174 244 -320 315 -155
75 5 70 -2302 69 -1727 0 -2079 -3 -2133 -15z m3458 -1803 c118 -61 189 -220
179 -401 -7 -131 -61 -224 -164 -282 -29 -16 -53 -32 -53 -35 0 -14 117 -216
127 -220 7 -3 27 7 44 21 59 50 107 69 166 64 69 -6 101 -36 114 -103 12 -67
3 -90 -49 -125 -66 -44 -135 -42 -230 6 l-71 35 -53 -39 c-309 -227 -721 -409
-1114 -492 -261 -54 -631 -78 -710 -45 -46 19 -68 69 -58 133 10 72 49 136 66
110 15 -25 8 -49 -22 -75 -58 -48 -31 -94 66 -112 84 -16 414 12 599 50 260
54 480 125 683 220 34 16 64 29 67 29 25 0 415 235 430 260 3 5 -5 25 -19 42
-13 18 -47 79 -75 136 -49 98 -52 102 -84 102 -17 0 -47 9 -65 20 -27 16 -33
26 -30 48 4 36 44 50 101 35 38 -11 44 -10 66 10 69 63 120 254 108 401 -11
127 -40 182 -91 172 -116 -24 -195 -291 -226 -769 -6 -93 -16 -177 -23 -188
-16 -25 -67 -49 -106 -49 -17 0 -49 7 -70 16 -35 14 -43 24 -60 69 -38 101
-53 257 -49 500 l3 223 -32 -102 c-43 -132 -126 -464 -148 -589 -19 -106 -28
-117 -93 -117 -103 0 -159 51 -201 184 -51 158 -101 454 -101 593 0 64 18 77
104 77 51 -1 62 -4 82 -27 13 -15 25 -46 28 -69 36 -285 79 -509 106 -557 8
-16 10 -10 85 264 46 167 113 365 160 472 17 37 30 53 43 53 29 0 32 -9 16
-45 -18 -43 -18 -49 2 -41 25 10 93 -5 127 -28 l32 -22 1 -284 c1 -157 6 -303
11 -325 8 -37 10 -32 17 60 26 355 98 627 188 717 34 34 43 38 88 38 30 0 66
-8 88 -19z m-2149 -20 c63 -32 107 -85 122 -144 l13 -52 7 60 c5 44 13 64 29
77 42 34 145 14 171 -33 9 -17 10 -69 5 -203 -4 -99 -5 -178 -3 -176 3 3 15
41 26 85 25 89 98 251 137 302 48 64 129 81 202 44 48 -25 126 -108 147 -157
47 -111 70 -293 55 -430 -39 -342 -185 -529 -426 -542 -142 -8 -213 44 -201
147 3 25 9 54 12 64 6 14 2 17 -22 17 -41 0 -110 51 -117 87 -18 82 -25 201
-27 408 -1 208 -2 225 -13 178 -27 -110 -172 -363 -208 -363 -7 0 -20 5 -28
10 -13 8 -13 14 4 42 119 203 141 252 158 353 13 75 1 129 -29 133 -65 10
-280 -102 -430 -223 -160 -128 -315 -336 -278 -373 4 -4 136 -10 293 -13 258
-5 292 -8 339 -26 88 -35 143 -91 143 -146 0 -39 -33 -99 -72 -132 -104 -88
-234 -85 -316 9 -36 42 -43 86 -13 86 10 0 36 -21 58 -46 l39 -46 37 15 c56
24 105 65 132 112 31 52 31 73 3 80 -13 3 -156 4 -318 3 -291 -3 -296 -3 -347
21 -68 30 -139 106 -149 157 -17 92 40 198 186 344 145 146 310 250 447 285
76 19 179 13 232 -14z"/>
<path d="M5025 3424 c-16 -8 -41 -23 -55 -34 l-25 -19 29 -30 c41 -43 106 -67
137 -51 41 21 59 42 59 67 0 20 4 23 20 18 33 -11 24 23 -12 45 -40 24 -110
26 -153 4z"/>
<path d="M3251 4210 c-77 -80 -143 -249 -190 -494 -43 -221 -40 -229 50 -156
35 28 106 72 157 97 73 36 94 51 100 72 4 14 7 82 6 151 -1 170 -41 370 -74
370 -5 0 -28 -18 -49 -40z"/>
<path d="M3294 3624 c-152 -80 -250 -193 -262 -301 -6 -55 18 -97 51 -87 71
21 150 113 212 247 33 72 60 155 52 163 -2 2 -26 -8 -53 -22z"/>
</g>
</svg>
