<?xml version="1.0" encoding="utf-8"?>
<!-- Generator: Adobe Illustrator 22.0.1, SVG Export Plug-In . SVG Version: 6.00 Build 0)  -->
<svg version="1.1" xmlns="http://www.w3.org/2000/svg" xmlns:xlink="http://www.w3.org/1999/xlink" x="0px" y="0px"
	 viewBox="0 0 1000 1000" style="enable-background:new 0 0 1000 1000;" xml:space="preserve">
<style type="text/css">
	.st0{stroke:#FF0000;stroke-miterlimit:10;}
	.st1{display:none;}
	.st2{display:none;stroke:#000000;stroke-miterlimit:10;}
	.st3{fill:#FCFCFC;}
	.st4{fill:#D63834;}
	.st5{fill:#FFFFFF;}
</style>
<g id="Calque_3">
	<path class="st0" d="M785.2,883.5H215.8c-54.3,0-98.3-44-98.3-98.3V215.8c0-54.3,44-98.3,98.3-98.3h569.5c54.3,0,98.3,44,98.3,98.3
		v569.5C883.5,839.5,839.5,883.5,785.2,883.5z"/>
</g>
<g id="Calque_2">
	<path class="st1" d="M626,627H374c-81.2,0-147-65.8-147-147v0c0-81.2,65.8-147,147-147h252c81.2,0,147,65.8,147,147v0
		C773,561.2,707.2,627,626,627z"/>
	<path class="st2" d="M582,691.5H437c-110.7,0-200.5-89.8-200.5-200.5v-49c0-110.7,89.8-200.5,200.5-200.5h145
		c110.7,0,200.5,89.8,200.5,200.5v49C782.5,601.7,692.7,691.5,582,691.5z"/>
	<g>
		<path class="st3" d="M360.6,533.1c-9.4,0-17.3-3.7-23.8-11.2c-1.5-1.8-2.7-3.7-3.5-5.6c-0.8-1.9-1.2-3.4-1.2-4.5
			c0-1.7,0.8-2.5,2.3-2.5c1,0,2.4,0.4,4.1,1.3c1.9,0.9,3.6,2.9,5.1,5.8c1.3,2.6,2.7,4.5,4.2,5.5c0.6,0.4,1,0.5,1.4,0.5
			c2.9,0,6.6-1.4,11.1-4.2c7.2-4.5,12.3-9.9,15.3-16.3c0.9-1.6,1.3-3.2,1.3-4.8c0-1.3-0.1-2.1-0.4-2.5c-1.2-1.5-7.2-2.2-18-2.2
			c-6,0-14.7,0.4-26,1.3c-9.6,0.8-17.8,1.2-24.8,1.2c-8.2,0-14.7-0.6-19.3-1.7c-6.6-1.4-12.5-4-17.8-7.7c-5.3-3.7-9.1-8-11.4-12.9
			c-1.4-2.7-2.1-5.8-2.1-9.1c0-5.4,1.8-11.5,5.5-18.4c7.1-13.8,20.2-28.1,39.3-42.9c13.3-10,25.5-17.1,36.8-21.5
			c8.6-3.2,16.9-4.8,24.7-4.8c11.4,0,20.5,3.5,27.3,10.4c4.3,4,7,8.4,8.2,13.3c0.4,1.6,0.6,4.1,0.6,7.4c0,3.1-0.2,5.9-0.7,8.4
			c-1.2,5.7-3.4,12.1-6.6,19.3c-4.8,10.6-10.6,20.3-17.6,29.2c-3,3.8-5,5.8-5.8,5.9c-0.3,0.1-0.8,0.1-1.5,0.1
			c-0.9-0.2-1.9-0.5-2.8-1.2c-1.4-0.9-2.1-1.7-2.1-2.5c0-0.6,1.4-2.9,4.1-6.8c4.7-7,8.3-13.2,10.9-18.4c7.2-14,10.8-25.8,10.8-35.4
			c0-3.1-0.3-6.1-0.9-9.1c-0.4-1.7-0.8-2.7-1-3c-0.3-0.2-1.2-0.3-2.8-0.3c-7.1,0-16.9,3.3-29.4,10c-9.4,5-18.7,11.1-27.9,18.1
			c-12.3,9.4-23.1,20-32.2,31.6c-8,10-12.2,17.7-12.5,23l-0.1,1.4c0,0.6,0.1,1,0.3,1.2c1.1,0.6,4.2,1.1,9.3,1.5
			c3.6,0.4,8.6,0.5,15.2,0.5c5.4,0,11.8-0.1,19.3-0.4c3.4-0.1,6.8-0.2,10.1-0.2c13.4,0,23.6,0.7,30.7,2.1c8.3,1.9,14.9,5.1,19.7,9.5
			c4.8,4.5,7.2,9,7.2,13.6c0,2.3-0.9,5.2-2.7,8.6c-1.3,2.5-2.7,4.7-4.3,6.5c-1.6,1.8-3.7,3.7-6.3,5.6c-2.6,1.9-5,3.4-7.4,4.5
			C368.9,532.1,365,533,360.6,533.1z"/>
		<path class="st3" d="M446.7,547.7c-2.2,0-4.1-0.1-5.8-0.3c-10.8-1.9-17.1-6.7-18.9-14.2c-0.2-1.2-0.3-3.1-0.3-5.8
			c0-2.4,0.3-4.5,0.8-6.4c0.3-1.2,0.8-2.9,1.4-5c0.2-0.6,0.3-1,0.3-1.2c0-0.1-0.1-0.2-0.2-0.2l-1.5,0.2c-1.9,0-4.1-0.4-6.6-1.2
			c-1.5-0.6-3.3-1.6-5.4-3c-2.1-1.4-3.6-2.5-4.6-3.5c-0.8-0.8-1.4-1.8-1.8-3c-0.4-1.2-0.8-3-1.2-5.6c-2.3-13.4-3.5-30.3-3.5-50.8
			c0-19.7,0.7-36.2,2.2-49.5c0.4-4.3,1.4-7.4,2.9-9.3c1.8-2.3,5-3.5,9.4-3.5c2.5,0,4.9,0.4,7.4,1.2c5.4,1.8,8.6,4.7,9.6,8.7
			c0.4,1.6,0.6,4.2,0.6,7.9c-0.1,3.7-0.3,9.3-0.6,16.8c-0.5,16.5-0.7,26.3-0.7,29.2v1.2l2-8c3.4-14.4,8.5-28,15.4-40.7
			c1.7-3.3,3.3-5.9,4.6-7.8c5.4-7.8,11.4-11.7,17.8-11.7c8.2,0,16.2,3.9,23.9,11.7c2.1,2.3,3.9,4.3,5.3,6.1
			c7.2,10.3,11.5,26.9,12.9,49.6c0.2,2.3,0.2,4.6,0.2,7c0,11.2-1.5,22.7-4.5,34.5c-1.5,6.3-3.2,11.7-4.9,16.1
			c-1.7,4.5-3.9,8.7-6.4,12.8c-8.6,14-21.8,23-39.5,26.8C454.3,547.4,450.8,547.7,446.7,547.7z M438.3,538.6l1.5-0.5
			c8.1-2.5,15.1-8.5,21.2-17.9c3.8-5.9,7.2-11.8,10-17.7c1.5-3.3,3-7.4,4.7-12.2c1.5-4.5,2.6-8.5,3.2-12.1
			c-7.9,3.2-15.5,7.7-22.9,13.3c-7.2,5.5-12.5,10.9-16,16c-3.8,5.7-6,10.6-6.8,14.8c-0.3,1.7-0.4,3.4-0.4,4.9
			c0,4.2,1.1,7.6,3.2,10.1c0.7,0.8,1.4,1.2,1.9,1.2H438.3z M434.5,499.5c0.3,0,0.8-0.4,1.6-1.3c0.2-0.1,0.3-0.2,0.4-0.4
			c1.3-1.2,3.4-3,6.2-5.3c9.9-7.8,19-13.4,27.3-16.8c2.7-1.1,5.6-2.3,8.8-3.5c0.8-0.2,1.4-0.7,1.6-1.5c0.3-0.8,0.6-2.9,1.1-6.3
			c0.7-5.4,1.1-11.1,1.1-16.9c0-12.7-1.7-26.5-5-41.3c-0.5-2.2-1.1-4.3-1.8-6.4c-0.7-2.1-1.3-3.8-1.9-5.2c-0.6-1.4-1-2.1-1.3-2.1
			c-0.8,0-2.6,1.1-5.4,3.2c-1.2,0.9-2.2,1.7-3,2.6c-6.2,6.9-12.1,17.9-17.7,32.9c-2.7,7.8-6,21.1-9.8,39.8c-0.8,3.6-1.4,7.5-2,11.7
			c-0.9,6-1.3,9.7-1.3,11.1c0,0.9,0.1,1.8,0.2,2.8C433.9,498.5,434.2,499.5,434.5,499.5z"/>
		<path class="st3" d="M563.5,525.6h-1.8c-4.2,0-8.5-1.1-12.7-3.2c-3.9-2-6.9-4.9-9.1-8.7c-1.8-3.3-4-8.7-6.3-16.2
			c-2.4-7.5-4.4-15.2-6.1-23.1c-1-4.9-2.1-11.1-3.3-18.7c-1.7-11.3-2.9-21.1-3.6-29.5c-0.6-7.9-0.9-13.2-0.9-15.7
			c0-3.1,2.4-5.2,7.2-6.4c1.9-0.5,4.4-0.7,7.3-0.7c7,0,11.5,1.7,13.7,5c1.7,2.6,2.9,7.5,3.5,14.8c2.8,26.3,6.1,46.3,10,60.2
			c3,10.7,4.7,16,5.3,16c0.2,0,0.6-1.4,1.3-4.1c1.4-5.4,3-11.1,4.8-17.3c1.6-5.3,3.5-12.3,5.6-20.9c3.3-12.6,6.5-23.4,9.8-32.3
			c9-25.6,14.5-38.9,16.5-40c0.5-0.2,1.3-0.3,2.5-0.3c1.3,0,2.1,0.1,2.6,0.3c0.4,0.2,0.7,0.4,0.8,0.7c0.1,0.3,0.2,0.6,0.2,0.9
			c0,0.6-0.2,1.3-0.6,2.1l-2.7,6.3c-0.7,1.7-1.5,4-2.4,6.8c-5.8,17.6-10.1,30.9-12.7,39.9c-2.4,8.2-4.7,16.8-6.8,25.8
			c-0.6,2.6-1.5,6.1-2.6,10.5c-3.8,15.6-6.3,27.9-7.6,37.1c-0.5,4-0.9,6.4-1.2,7.1C572.9,524.3,569.4,525.5,563.5,525.6z"/>
		<path class="st3" d="M725.7,536.2h-2.1c-6.9-0.6-14.2-3.5-22-8.5c-2.7-1.8-5.6-4.4-8.6-7.6s-5.6-6.5-7.9-10
			c-1.5-2.4-3.5-6.1-6-11.1c-2.5-5-4.5-9.4-6.1-12.9c-1.3-3.2-2-5-2.3-5.2c-0.3-0.2-1.5-0.3-3.5-0.4c-4.5-0.3-8.3-1.4-11.6-3.3
			c-3.3-1.9-4.9-3.9-4.9-6.2c0-1.2,0.6-2.5,1.7-3.8c1.8-2.1,4.2-3.1,7.4-3.1c3,0,6.4,0.8,10.3,2.5c1,0.5,1.7,0.7,2.1,0.7
			c0.3,0,1-0.6,2.2-1.8c2.1-2.1,3.8-4.1,5.1-6c2.5-3.9,4.8-8.5,6.8-13.7c3.3-8.8,4.9-19.9,4.9-33.2c0-11.5-1.7-20.5-5.1-27
			c-0.7-1.4-1.3-2.4-1.9-3c-0.9-0.8-2.2-1.2-4.1-1.2c-1.9,0-4.1,0.7-6.6,2.1c-2.4,1.4-4.7,3.7-6.9,6.8c-3.1,4.7-6.1,11.6-8.9,20.8
			c-2.8,9.2-5.1,19-6.8,29.6c-2.7,16.9-4.4,33.8-5.1,50.7c-0.7,15.3-1.5,24-2.5,26.3c-0.3,0.5-0.8,1.2-1.5,2c-1.9,2-3.5,3.4-4.8,4
			c-2.9,1.2-6.1,1.8-9.6,1.8c-4.7,0-8.9-0.9-12.5-2.7c-1.6-0.7-2.8-1.7-3.7-3c-0.9-1.3-1.8-3.4-2.8-6.4c-1.8-5.2-3-10-3.6-14.3
			c-0.6-4.3-1.1-7.3-1.4-8.9c-1.8-11-2.7-24.5-2.7-40.8c0-3.3,0.1-6.6,0.2-9.8c0.6-20.1,1.9-33,3.8-38.6c0.8-3.2,3.6-4.8,8.3-4.8
			c4.2,0,8.2,0.9,11.9,2.7c3.5,1.7,5.9,3.7,7.4,6.1c0.2,0.4,0.4,0.8,0.5,1.2c0.2,0.6,0.2,2.5,0.2,5.7c0,3.7-0.2,7.9-0.5,12.7
			c-0.8,10.5-1.2,20.2-1.2,29.2c0,7.3,0.3,14,0.8,20.3c0.5,6,1.3,12.5,2.4,19.3c0.5,3,0.8,4.5,1,4.5c0.1,0,0.2-0.8,0.2-2.5
			c0.4-10.2,0.8-18,1.3-23.3c2.3-24.4,5.4-43.3,9.4-56.8c4.1-14.3,8.3-24.7,12.4-31c3.4-5,7.3-8.3,11.7-10.1c1.3-0.4,3-0.6,5.2-0.6
			c2.3,0.1,4.3,0.3,6.2,0.8c6.3,1.7,11.7,4.8,16.1,9.3c8,7.9,13.2,19.8,15.7,35.5c0.4,2.7,0.6,6.2,0.6,10.4l-0.1,4.6
			c-0.1,9.3-2.5,17.5-7.1,24.7c-4,6.3-8.5,11-13.4,14.2c-1,0.7-2.3,1.4-3.9,2.2c-4.1,2.3-6.4,3.4-6.8,3.4c-0.3,0-0.4,0.1-0.4,0.2
			c0,0.3,1.9,4.1,5.8,11.5c4.2,7.9,6.9,13,8.2,15.3c6.5,10.9,13.8,18.6,22,23c3,1.6,5.6,2.4,7.7,2.4c3,0,6.2-1.7,9.7-5
			c1.6-1.4,2.5-2.4,2.5-3v-0.4c0-0.6,0.4-1,1.3-1.3c0.8-0.3,1.8-0.5,3-0.5h1.2c0.7,0,1.4,0.2,2.1,0.7c0.7,0.4,1.1,1,1.1,1.7
			c0,1.3-1.3,3.2-3.8,5.8c-4.1,4.3-9.1,6.8-14.9,7.2L725.7,536.2z M663.5,472.7l1.2-0.4c0.4-0.2,0.6-0.3,0.6-0.5
			c0-0.2-0.2-0.4-0.6-0.7c-0.2-0.1-0.3-0.2-0.4-0.2c-0.3,0-0.6,0.2-0.9,0.7c-0.3,0.4-0.5,0.8-0.5,1c0,0.1,0.1,0.2,0.3,0.2H663.5z"/>
	</g>
	<g>
		<path class="st4" d="M428.5,600.8c-1.7-0.1-3.3-0.4-4.7-1c-1.4-0.6-2.7-1.4-3.8-2.4c-1.8-1.5-3.1-3.2-4.1-4.9
			c-0.9-1.8-1.4-3.7-1.4-5.7v-0.2c0-0.6,0-1.3,0-1.9s0-1.3,0.1-1.9c0.1-1.3,0.9-2,2.2-2h0.1c1.3,0,2.1,0.6,2.5,1.8l0.1,0.6
			c0,0.2,0,0.3-0.1,0.5c0,0.2-0.1,0.4-0.1,0.5l-0.1,1.7c0,1,0.1,2,0.3,2.9c0.3,1.4,1,2.7,1.9,3.9c0.9,1.1,2,2.2,3.4,3.1
			c0.5,0.3,0.9,0.5,1.4,0.7c0.7,0.3,1.5,0.4,2.2,0.4c1.2,0,2.1-0.3,2.9-1c0.8-0.6,1.2-1.5,1.2-2.7v-0.7c0-1.8-0.4-3.5-1.2-5.2
			c-0.3-0.7-0.7-1.5-1-2.2c-0.3-0.7-0.7-1.4-1.2-2.2c-0.1-0.1-0.2-0.2-0.4-0.5c-0.2-0.2-0.4-0.5-0.6-0.7c-0.2-0.3-0.5-0.5-0.7-0.8
			c-0.2-0.3-0.5-0.5-0.7-0.7c-0.4-0.3-0.8-0.7-1.2-1c-0.4-0.3-0.8-0.7-1.2-1c-0.4-0.3-0.7-0.6-1-0.8c-0.3-0.2-0.5-0.4-0.7-0.5
			c-0.6-0.4-1.2-0.9-1.8-1.4c-0.6-0.5-1.2-1-1.9-1.6c-1.3-1.1-2.4-2.3-3.1-3.5c-0.8-1.2-1.3-2.3-1.6-3.4c-0.1-0.7-0.2-1.4-0.3-2.1
			c-0.1-0.7-0.1-1.4-0.1-2.1c0-0.8,0.1-1.6,0.2-2.4c0.3-1.8,0.9-3.5,1.9-5.1c1-1.5,2.3-3,3.9-4.3c1-0.9,2.1-1.5,3.4-2
			c1.2-0.5,2.6-0.7,4.1-0.7h2.8c0.8,0,1.5,0,2.3,0c0.7,0,1.3,0,1.8,0h0.8c2.2,0,4,0.4,5.4,1.3c1.4,0.8,2.6,2,3.4,3.5
			c1.3,2.5,2,5.2,2,8c0,1.9-0.3,3.8-0.9,5.8c-0.2,0.6-0.5,1-0.9,1.2c-0.4,0.3-0.9,0.4-1.4,0.4c-0.3,0-0.5,0-0.6,0
			c-0.6-0.1-1-0.3-1.3-0.7c-0.3-0.3-0.5-0.7-0.5-1.2l0.1-0.6c0.4-1.5,0.6-3,0.6-4.6c0-1.3-0.1-2.5-0.4-3.7c-0.2-0.9-0.4-1.7-0.7-2.5
			c-0.3-0.8-0.9-1.5-1.8-2.2c-0.7-0.5-1.4-0.8-2-0.8c-0.4,0-0.9,0.1-1.6,0.4c-0.3,0.1-0.6,0.3-0.9,0.4c-0.3,0.2-0.5,0.3-0.8,0.6
			c-1,0.8-1.8,1.7-2.6,2.6c-0.7,0.9-1.3,2-1.6,3.1c-0.3,1.2-0.5,2.3-0.5,3.5c0,0.7,0,1.3,0.1,2c0.1,0.7,0.2,1.3,0.4,2
			c0.1,0.2,0.2,0.5,0.5,1c0.2,0.5,0.5,0.8,0.6,1c0.2,0.3,0.5,0.6,0.8,0.9c0.3,0.3,0.6,0.7,1,1c0.7,0.6,1.4,1.2,2,1.7
			c0.6,0.6,1.3,1.1,2,1.6c0.7,0.5,1.5,1.1,2.3,1.8c0.8,0.7,1.6,1.4,2.3,2.1c0.2,0.2,0.5,0.5,0.8,0.8c0.3,0.3,0.6,0.7,0.8,1
			c0.3,0.3,0.5,0.6,0.7,0.9c0.2,0.3,0.3,0.4,0.4,0.5c0.5,0.9,1,1.7,1.4,2.6c0.4,0.9,0.8,1.8,1.2,2.6c0.8,1.9,1.3,3.8,1.3,5.8
			c0,0.3,0,0.6,0,0.9c0,0.3,0,0.6-0.1,0.9c-0.1,0.8-0.4,1.6-0.8,2.4c-0.5,0.8-1.1,1.5-1.8,2.1c-0.8,0.6-1.7,1.1-2.7,1.5
			c-1.1,0.4-2.2,0.6-3.5,0.6l-6.4,0.1C430.5,601,429.5,600.9,428.5,600.8z"/>
		<path class="st4" d="M453.9,577.7c-0.1-2.7-0.3-5.3-0.4-8c-0.1-2.6-0.2-5.3-0.3-7.9c0-0.1,0-0.2,0-0.3c0-0.1,0-0.2,0-0.3
			c0-1.6,0.3-3.1,0.7-4.6c0.4-1.5,1-3,1.9-4.4c1.2-2.2,3.2-3.3,6.1-3.5c1.3-0.1,2.6-0.2,3.8-0.2c1.3,0,2.6-0.1,3.8-0.1
			c1.7,0,3.3,0,5,0.1c1.2,0.1,2.2,0.3,3.2,0.7c0.9,0.4,1.8,1,2.6,1.7c1.2,1.1,2.1,2.3,2.9,3.5c0.8,1.2,1.3,2.6,1.6,4
			c0.5,2.4,0.9,4.8,1.1,7.2c0.3,2.4,0.4,4.8,0.4,7.2c0,0.8,0,1.7-0.1,2.5c0,0.8-0.1,1.6-0.2,2.5c-0.1,0.7-0.1,1.5-0.2,2.2
			s-0.1,1.5-0.1,2.2c0,0.9,0,1.8,0.1,2.6c0.1,0.8,0.2,1.7,0.4,2.6c0.1,1.1,0.2,2.2,0.2,3.3c0.1,1.1,0.1,2.1,0.2,3.1
			c0.1,1,0.2,1.9,0.3,2.8c0.1,0.9,0.3,1.7,0.6,2.4c0.1,0.2,0.1,0.4,0.1,0.5c0,0.6-0.4,1-1.1,1.4c-0.5,0.2-0.9,0.3-1.3,0.3
			c-0.5,0-1-0.1-1.5-0.3c-0.4-0.2-0.7-0.5-0.9-0.8c-0.2-0.3-0.3-0.7-0.4-1c-0.1-0.6-0.2-1.1-0.4-1.7c-0.1-0.6-0.2-1.2-0.2-1.7
			c0-1.5-0.1-2.9-0.2-4.1c-0.1-1.2-0.2-2.3-0.4-3.3c-0.1-1-0.2-2-0.3-2.8s-0.2-1.7-0.2-2.6v-0.4c0-0.6-0.3-0.8-1-0.8h-0.4
			c-1.2,0.1-2.5,0.2-3.7,0.3c-1.2,0.1-2.5,0.2-3.7,0.2c-0.9,0-1.7,0-2.6-0.1h-0.3c-0.7,0-1,0.3-1,1c0,1.1,0.1,2.3,0.1,3.4
			c0,1.1,0,2.3,0,3.4l-0.2,8.6c0,1-0.2,1.7-0.7,2.1s-1.3,0.6-2.5,0.7c-1.5,0.1-3.1,0.1-4.6,0.1c-0.4,0-0.8,0-1.3,0
			c-0.4,0-0.9,0-1.3,0c-1.3,0-2.3-0.3-2.8-0.7c-0.6-0.4-0.9-1.2-0.9-2.3c0-0.9-0.1-1.8-0.1-2.6s0-1.7,0-2.6l0.2-7.9
			c0-1.2,0-2.4-0.1-3.6C454.1,580.1,454,578.9,453.9,577.7z M467.6,568.9c0,1.3,0.1,2.6,0.2,3.9s0.2,2.6,0.3,3.9
			c0,0.4,0.1,0.6,0.3,0.8c0.2,0.2,0.5,0.3,1,0.3c0.4,0,0.8,0,1.3,0.1c0.4,0,0.8,0,1.3,0c1.3,0,2.5,0,3.7-0.1
			c1.2-0.1,2.5-0.2,3.7-0.3c0.5,0,0.9-0.1,1.2-0.1c0.3-0.1,0.5-0.2,0.6-0.3c0.1-0.1,0.2-0.3,0.3-0.6c0-0.2,0.1-0.6,0.1-1
			c0-0.3,0-0.6,0-0.9c0-0.3,0-0.6,0-0.9c0-1.8-0.1-3.6-0.2-5.4c-0.2-1.8-0.3-3.6-0.5-5.4c-0.1-0.8-0.2-1.6-0.4-2.4
			c-0.2-0.8-0.4-1.6-0.6-2.4c-0.3-0.9-0.7-1.8-1.3-2.5c-0.6-0.8-1.2-1.5-2-2.2c-0.5-0.5-1-0.8-1.6-0.9c-0.6-0.2-1.2-0.2-1.9-0.2
			c-0.3,0-0.6,0-0.8,0c-0.3,0-0.6,0-0.8,0.1c-0.8,0.1-1.3,0.3-1.6,0.7c-0.3,0.4-0.5,0.9-0.8,1.3c-1.1,2.2-1.7,4.5-1.7,6.9
			c0,0.2,0,0.3,0,0.5c0,0.2,0,0.3,0,0.5c0,1,0.1,2,0.1,3.1c0.1,1,0.1,2,0.2,3.1V568.9z"/>
		<path class="st4" d="M511.8,600.9c-0.8,0-1.5,0-2.3-0.1c-0.8,0-1.5,0-2.3,0l-2.6,0c-1.1,0-2.1-0.1-2.9-0.4
			c-0.9-0.3-1.6-0.7-2.3-1.2c-0.6-0.5-1.2-1.1-1.6-1.7c-0.4-0.6-0.7-1.3-0.9-2c-0.4-1.2-0.7-2.5-1-3.7c-0.3-1.2-0.5-2.5-0.8-3.8
			c-0.2-1.2-0.4-2.3-0.5-3.5c-0.1-1.2-0.2-2.4-0.3-3.6s-0.1-2.5-0.1-3.9c0-1.3,0-2.7-0.1-4.2l0.1-4.6c0-0.7,0-1.5,0-2.2
			c0-0.7,0-1.5,0.1-2.2c0.2-2.4,0.8-4.6,1.8-6.6c1-2.1,2.4-4.1,4-6c1.5-1.8,3.6-2.7,6.2-2.7h4.9l2.6,0c3.3,0.1,6.2,1.1,8.6,2.9
			c0.8,0.6,1.5,1.3,2,2c0.5,0.7,0.9,1.5,1,2.4l0.1,0.6c0,0.5-0.1,0.9-0.2,1.2c-0.2,0.5-0.5,0.9-0.9,1.1c-0.4,0.3-0.9,0.4-1.4,0.4
			h-0.3c-0.6-0.1-1-0.2-1.4-0.5c-0.4-0.3-0.6-0.7-0.6-1.2v-0.2c0-1.2-0.4-2.2-1.3-2.8s-1.9-1.2-3.2-1.6c-0.3-0.1-0.6-0.2-0.9-0.2
			c-0.2-0.1-0.5-0.1-0.7-0.1c-0.4,0-0.7,0.1-1,0.3c-0.3,0.2-0.6,0.5-0.9,0.9c-1.5,1.8-2.6,3.6-3.5,5.5c-0.8,1.9-1.3,4-1.4,6.1
			l-0.1,6.8c0,2.4,0,4.6,0.1,6.5c0.1,1.9,0.2,3.8,0.4,5.5c0.2,1.7,0.5,3.5,0.8,5.2c0.4,1.7,0.8,3.4,1.3,5.2c0,0.1,0.1,0.3,0.1,0.4
			c0,0.1,0.1,0.3,0.2,0.4c0.6,1.2,1.5,1.8,2.6,1.8c0.4,0,0.9-0.1,1.5-0.2c1.1-0.3,2.1-0.7,3-1.2s1.7-1,2.4-1.6
			c0.7-0.6,1.3-1.3,1.7-2.2c0.4-0.8,0.7-1.8,0.7-2.8l0.1-1.4c0-0.8,0-1.6-0.1-2.4s-0.2-1.6-0.3-2.4c0-0.3-0.1-0.6-0.1-0.8
			c0-0.3-0.1-0.6-0.1-0.9c0-0.1,0-0.3,0-0.4s0-0.2,0.1-0.4c0.1-0.5,0.4-0.9,0.8-1.3c0.4-0.3,0.9-0.5,1.5-0.5h0.1
			c0.6,0,1,0.1,1.5,0.4c0.4,0.3,0.7,0.7,0.8,1.2c0.2,1.2,0.3,2.5,0.5,3.7c0.2,1.2,0.3,2.5,0.3,3.7c0,0.5,0,0.9-0.1,1.4
			c0,0.5-0.1,0.9-0.2,1.4c-0.2,1.3-0.6,2.5-1.4,3.7c-0.7,1.1-1.7,2.1-2.9,3c-1.5,1.1-3.2,2-5,2.7s-3.8,1-6,1H511.8z"/>
		<path class="st4" d="M537.6,600.9c-1.4,0-2.3-0.6-2.5-1.9c-0.1-0.5-0.1-1-0.1-1.5s0-1-0.1-1.5l-1-20c-0.1-0.6-0.1-1.3-0.2-1.9
			c0-0.6-0.1-1.2-0.1-1.8c0-0.9,0-1.8,0.1-2.7c0-0.9,0.1-1.7,0.1-2.6c0-2.1,0.1-4.2,0.1-6.2c0-2.1,0.1-4.2,0.1-6.2
			c0-0.6,0.1-1.2,0.2-1.7c0.1-0.6,0.1-1.1,0.2-1.7c0.2-1.1,0.5-1.8,1.1-2.2c0.5-0.4,1.5-0.6,2.9-0.6h7.5c2,0.1,3,0.7,3,1.9
			c0,0.4-0.1,0.7-0.2,1c-0.3,0.6-0.4,1.3-0.5,1.9s-0.1,1.3-0.1,1.9c-0.1,2.4-0.1,4.7-0.2,7c-0.1,2.3-0.1,4.5-0.1,6.5
			c0,2.6,0.1,5.3,0.2,7.9c0,0.9,0.1,1.5,0.3,1.8c0.2,0.3,0.6,0.5,1.3,0.5c0.2,0,0.4,0,0.7,0c0.3,0,0.6,0,0.9-0.1
			c0.7-0.1,1.5-0.1,2.2-0.1s1.5,0,2.2,0c0.3,0,0.5,0,0.8,0s0.5,0,0.7,0c0.6-0.1,1.1-0.2,1.5-0.2c0.4-0.1,0.7-0.2,0.9-0.3
			c0.2-0.2,0.3-0.3,0.4-0.6c0.1-0.2,0.1-0.6,0.1-1l-0.1-3c0-1.5,0-2.9,0.1-4.3c0.1-1.4,0.2-2.7,0.3-3.9c0.1-1.2,0.2-2.3,0.2-3.5
			s0-2.4,0-3.5v-5.6c0-0.2,0-0.4-0.1-0.7c-0.1-0.2-0.1-0.4-0.1-0.7l-0.1-0.5c0-0.4,0.1-0.8,0.3-1.2c0.5-0.8,1.3-1.2,2.3-1.2h0.2
			c1.2,0.1,1.9,0.6,2.2,1.5c0.1,0.3,0.1,0.6,0.1,0.9c0,0.3,0,0.6,0,0.9c0,3.5,0,7-0.1,10.4c-0.1,3.4-0.2,6.7-0.4,10l-0.1,2.1
			c0,1,0.1,2,0.2,2.9c0,0.2,0.1,0.4,0.1,0.6s0.1,0.4,0.2,0.5c0.4,0.5,0.6,1,0.6,1.5c0,0.4-0.1,0.8-0.4,1.2c-0.1,0.2-0.2,0.4-0.2,0.7
			c0,0.2,0,0.4,0.1,0.6c0,0.2,0.1,0.4,0.1,0.6l2.1,15.1c0,0.2,0.1,0.3,0.1,0.5s0,0.3,0,0.5c-0.1,0.6-0.3,1-0.7,1.4
			c-0.4,0.4-0.8,0.6-1.4,0.6H565c-0.6,0-1.1-0.1-1.5-0.4c-0.4-0.3-0.7-0.7-0.8-1.2c-0.2-0.8-0.3-1.7-0.5-2.5
			c-0.1-0.8-0.3-1.7-0.4-2.6c-0.3-2.1-0.5-4-0.7-5.7c-0.2-1.7-0.4-3.5-0.7-5.4c-0.1-0.4-0.1-0.7-0.2-0.9c-0.1-0.1-0.3-0.2-0.5-0.2
			l-1,0.1c-1.5,0.1-2.9,0.2-4.4,0.2c-1.4,0.1-2.9,0.1-4.4,0.2c-0.6,0-1,0.1-1.2,0.1c-0.2,0.1-0.3,0.3-0.3,0.7l0.8,13.5v2
			c-0.2,1.3-1,2-2.5,2c-0.7,0-1.3,0-1.9,0c-0.6,0-1.3,0-1.9,0L537.6,600.9z"/>
		<path class="st4" d="M574.4,577.7c-0.1-2.7-0.3-5.3-0.4-8c-0.1-2.6-0.2-5.3-0.3-7.9c0-0.1,0-0.2,0-0.3c0-0.1,0-0.2,0-0.3
			c0-1.6,0.3-3.1,0.7-4.6c0.4-1.5,1-3,1.9-4.4c1.2-2.2,3.2-3.3,6.1-3.5c1.3-0.1,2.6-0.2,3.8-0.2c1.3,0,2.6-0.1,3.8-0.1
			c1.7,0,3.3,0,5,0.1c1.2,0.1,2.3,0.3,3.2,0.7c0.9,0.4,1.8,1,2.6,1.7c1.2,1.1,2.1,2.3,2.9,3.5c0.8,1.2,1.3,2.6,1.6,4
			c0.5,2.4,0.9,4.8,1.1,7.2s0.4,4.8,0.4,7.2c0,0.8,0,1.7-0.1,2.5c0,0.8-0.1,1.6-0.2,2.5c-0.1,0.7-0.1,1.5-0.2,2.2
			c-0.1,0.7-0.1,1.5-0.1,2.2c0,0.9,0,1.8,0.1,2.6c0.1,0.8,0.2,1.7,0.4,2.6c0.1,1.1,0.2,2.2,0.2,3.3c0.1,1.1,0.1,2.1,0.2,3.1
			c0.1,1,0.2,1.9,0.3,2.8c0.1,0.9,0.3,1.7,0.6,2.4c0.1,0.2,0.1,0.4,0.1,0.5c0,0.6-0.4,1-1.1,1.4c-0.5,0.2-0.9,0.3-1.3,0.3
			c-0.5,0-1-0.1-1.5-0.3c-0.4-0.2-0.7-0.5-0.9-0.8c-0.2-0.3-0.3-0.7-0.4-1c-0.1-0.6-0.2-1.1-0.4-1.7c-0.1-0.6-0.2-1.2-0.2-1.7
			c0-1.5-0.1-2.9-0.2-4.1c-0.1-1.2-0.2-2.3-0.4-3.3c-0.1-1-0.2-2-0.3-2.8c-0.1-0.9-0.2-1.7-0.2-2.6v-0.4c0-0.6-0.3-0.8-1-0.8h-0.4
			c-1.2,0.1-2.5,0.2-3.7,0.3c-1.2,0.1-2.5,0.2-3.7,0.2c-0.9,0-1.7,0-2.6-0.1h-0.3c-0.7,0-1,0.3-1,1c0,1.1,0.1,2.3,0.1,3.4
			c0,1.1,0,2.3,0,3.4l-0.2,8.6c0,1-0.2,1.7-0.7,2.1c-0.5,0.4-1.3,0.6-2.5,0.7c-1.5,0.1-3.1,0.1-4.6,0.1c-0.4,0-0.8,0-1.3,0
			c-0.4,0-0.9,0-1.3,0c-1.3,0-2.3-0.3-2.8-0.7c-0.6-0.4-0.9-1.2-0.9-2.3c0-0.9-0.1-1.8-0.1-2.6s0-1.7,0-2.6l0.2-7.9
			c0-1.2,0-2.4-0.1-3.6C574.6,580.1,574.5,578.9,574.4,577.7z M588,568.9c0,1.3,0.1,2.6,0.2,3.9s0.2,2.6,0.3,3.9
			c0,0.4,0.1,0.6,0.3,0.8c0.2,0.2,0.5,0.3,1,0.3c0.4,0,0.8,0,1.3,0.1c0.4,0,0.8,0,1.3,0c1.3,0,2.5,0,3.7-0.1
			c1.2-0.1,2.5-0.2,3.7-0.3c0.5,0,0.9-0.1,1.2-0.1c0.3-0.1,0.5-0.2,0.6-0.3c0.1-0.1,0.2-0.3,0.3-0.6c0-0.2,0.1-0.6,0.1-1
			c0-0.3,0-0.6,0-0.9c0-0.3,0-0.6,0-0.9c0-1.8-0.1-3.6-0.2-5.4c-0.2-1.8-0.3-3.6-0.5-5.4c-0.1-0.8-0.2-1.6-0.4-2.4
			c-0.2-0.8-0.4-1.6-0.6-2.4c-0.3-0.9-0.7-1.8-1.3-2.5c-0.6-0.8-1.2-1.5-2-2.2c-0.5-0.5-1-0.8-1.6-0.9c-0.6-0.2-1.2-0.2-1.9-0.2
			c-0.3,0-0.6,0-0.8,0c-0.3,0-0.6,0-0.8,0.1c-0.8,0.1-1.3,0.3-1.6,0.7c-0.3,0.4-0.5,0.9-0.8,1.3c-1.1,2.2-1.7,4.5-1.7,6.9
			c0,0.2,0,0.3,0,0.5s0,0.3,0,0.5c0,1,0.1,2,0.1,3.1c0.1,1,0.1,2,0.2,3.1V568.9z"/>
		<path class="st4" d="M626.2,601c-1-0.1-2.1-0.1-3.1-0.2c-1-0.1-2.1-0.1-3.1-0.2c-0.7,0-1.3-0.1-1.8-0.2c-0.5-0.1-0.8-0.3-1.1-0.5
			c-0.3-0.2-0.5-0.5-0.6-0.9s-0.2-0.9-0.3-1.5c-0.2-1.7-0.4-3.4-0.5-5c-0.1-1.7-0.2-3.4-0.3-5c-0.2-2.6-0.3-5.3-0.3-7.9
			c0-2.7-0.1-5.3-0.1-7.9c-0.1-0.6-0.1-1.3-0.2-1.9c0-0.6-0.1-1.3-0.1-1.9c-0.1-0.6-0.1-1.2-0.2-1.8c0-0.6-0.1-1.2-0.1-1.8
			c0-1.5,0.1-3.1,0.2-4.6c0.2-1.5,0.3-3.1,0.4-4.6c0.1-1.3,0.3-2.6,0.5-3.9c0.1-0.9,0.5-1.6,1-2c0.5-0.4,1.4-0.6,2.6-0.6
			c1.8,0,3.5,0,5.3,0.1c1.8,0.1,3.5,0.1,5.3,0.2c1.2,0.1,2.2,0.2,3.3,0.5c1,0.3,2.1,0.6,3.1,1c1.6,0.6,2.9,1.5,3.8,2.7
			c1.3,1.8,2.3,3.6,3,5.5c0.7,1.9,1.2,3.9,1.5,5.9c0.3,1.7,0.4,3.4,0.4,5.1c0,1.7,0.1,3.4,0.4,5.1l-0.1,4.4l0.1,2.7l0.1,1.2
			c0,1.2-0.1,2.3-0.3,3.5c-0.2,1.1-0.4,2.3-0.7,3.5c-0.3,1.4-1,2.7-1.9,3.8c-0.9,1.1-1.9,2.2-3.1,3.2c-1.7,1.5-3.5,2.5-5.5,3.2
			c-2,0.6-4.2,1-6.6,1L626.2,601z M630.4,597.2c2.5-0.9,4.6-2.1,6.3-3.4s2.8-3.2,3.3-5.3c0.2-1,0.4-2,0.5-2.9s0.1-2,0.1-2.9
			l-0.1-2.6c-0.2-2.3-0.3-4.6-0.3-6.9c-0.1-2.3-0.1-4.6-0.3-6.9c-0.2-3.8-1.4-7.3-3.6-10.6c-0.6-0.9-1.3-1.5-2.2-1.8
			c-0.9-0.4-1.9-0.7-3-0.9c-0.1,0-0.3,0-0.5,0c-0.6,0-0.9,0.3-1,1l-0.2,2.7c-0.1,1.4-0.2,2.7-0.3,4c-0.1,1.3-0.2,2.7-0.2,4
			c0,0.6,0,1.3,0.1,1.9c0,0.6,0.1,1.3,0.2,1.9c0,1.3,0.1,2.6,0.2,3.9c0,3.1,0.1,6.2,0.1,9.4c0,3.2,0.2,6.3,0.4,9.4
			c0.1,1,0.1,2,0.2,3C630,594.9,630.2,596,630.4,597.2z"/>
		<path class="st4" d="M665,601c-0.5,0-1.1,0-1.6,0c-0.5,0-1.1,0-1.6-0.1c-0.5,0-1-0.1-1.3-0.1c-0.3-0.1-0.6-0.2-0.9-0.3
			c-0.2-0.2-0.4-0.4-0.6-0.6s-0.3-0.6-0.5-1c-0.2-0.5-0.4-1-0.4-1.5c-0.1-0.5-0.1-1-0.1-1.5c0-1.2-0.2-2.3-0.4-3.4
			c-0.3-1.1-0.5-2.3-0.7-3.4c-0.8-3.9-1.6-7.7-2.2-11.5c-0.7-3.8-1.2-7.4-1.6-10.9c-0.5-4.9-0.9-9.8-1.3-14.7c0-0.2,0-0.4,0-0.6
			c0-0.2,0-0.4,0.1-0.6c0.2-1.2,1-1.8,2.2-1.9c0.7-0.1,1.5-0.1,2.2-0.1c0.7,0,1.4,0,2.2,0c0.8,0,1.7,0,2.5,0.1
			c0.9,0,1.7,0.1,2.5,0.1c1.4,0.1,2.1,0.9,2.1,2.3c0,1.7,0.1,3.5,0.3,5.2c0.2,1.7,0.3,3.5,0.5,5.2c0.3,3.2,0.6,6.5,1.1,10
			c0.4,3.5,1.1,7,2,10.6c0.1,0.5,0.2,1,0.2,1.5c0,0.5,0.2,1.1,0.6,1.7c0.3-1.5,0.5-2.9,0.7-4.2c0.2-1.3,0.5-2.6,0.7-3.9
			c0.9-4.6,1.9-9.1,3.1-13.5c1.1-4.4,2.3-8.5,3.6-12.3c0.1-0.3,0.2-0.6,0.4-0.9c0.1-0.3,0.3-0.6,0.6-0.9c0.5-0.6,1.2-0.8,2-0.8
			c0.4,0,0.7,0.1,1,0.2c0.5,0.1,0.8,0.4,1.1,0.7s0.4,0.6,0.4,1c0,0.2-0.1,0.5-0.2,0.7c-1.4,3.4-2.6,7.2-3.6,11.2
			c-1,4.1-2,8.2-3,12.5c-0.7,2.9-1.2,5.9-1.6,8.8c-0.4,3-0.8,5.9-1.2,8.9c-0.1,1.1-0.3,2.1-0.5,3.1c-0.2,1-0.5,2-0.9,3.1
			c-0.3,0.9-0.7,1.5-1.1,1.7s-1.3,0.4-2.4,0.5c-0.7,0-1.5,0-2.2,0.1C666.4,601,665.7,601,665,601z"/>
		<path class="st4" d="M694.8,601.1c-2.5,0-3.8-1-3.8-2.9v-0.7c0-0.5,0-1-0.1-1.6c-0.1-0.5-0.1-1-0.2-1.6c0-3.7-0.1-7.2-0.2-10.5
			c-0.1-3.2-0.2-6.4-0.2-9.6l0.1-4.5c0-2,0-4.1-0.1-6.1c-0.1-2-0.1-4-0.2-6c0-0.7-0.1-1.5-0.1-2.2c0-0.7,0-1.5,0-2.2v-1.7
			c0-1.9,1.2-2.9,3.6-2.9c1.1-0.1,2.2-0.1,3.4-0.1c1.2,0,2.3,0,3.4,0c1,0,2,0,3,0c1,0,2,0.1,2.9,0.2c2.8,0.3,5.2,1,7.2,2.2
			c2,1.2,3.5,2.9,4.4,5.1c0.8,1.9,1.4,3.8,1.8,5.7s0.6,3.8,0.6,5.8l-0.1,1.9c-0.1,0.6-0.2,1.2-0.3,2c-0.1,0.8-0.3,1.5-0.4,2.3
			c-0.4,2.1-1.4,3.8-2.8,5.3c-1.4,1.4-3.5,2.5-6.1,3.1c-0.1,0-0.3,0.1-0.4,0.1c-0.1,0.1-0.3,0.1-0.6,0.2c0.4,0.3,0.9,0.8,1.4,1.4
			c0.6,0.6,1.1,1.4,1.8,2.2c0.6,0.8,1.2,1.7,1.9,2.6s1.3,1.8,1.9,2.7c0.6,0.9,1.1,1.7,1.6,2.4c0.5,0.7,0.9,1.3,1.2,1.8
			c0.2,0.3,0.4,0.5,0.6,0.8c0.2,0.2,0.5,0.5,0.7,0.7c0.2,0.2,0.3,0.4,0.5,0.5c0.2,0.2,0.3,0.4,0.4,0.6c0.2,0.4,0.4,0.7,0.4,1.1
			c0,0.5-0.2,0.9-0.7,1.3c-0.5,0.3-1,0.5-1.5,0.5c-0.7,0-1.2-0.2-1.7-0.6c-0.7-0.5-1.2-1-1.7-1.6c-0.5-0.6-1-1.2-1.5-1.8
			c-0.6-0.8-1.2-1.8-1.9-2.8c-0.6-1-1.3-2-1.9-3.1c-0.7-1-1.4-2-2.1-3c-0.7-1-1.5-1.8-2.3-2.5c-0.1-0.1-0.3-0.2-0.4-0.3
			c-0.1-0.1-0.2-0.2-0.4-0.3c-0.2,0.1-0.3,0.2-0.4,0.3c-0.1,0.1-0.1,0.2-0.1,0.3l0.1,0.6l0.4,12.5c0,0.7-0.2,1.3-0.6,1.6
			c-0.4,0.3-1.1,0.5-2.1,0.6c-1.4,0.1-2.7,0.1-4.1,0.2C697.5,601.1,696.2,601.1,694.8,601.1z M707.1,578.5c1.4,0,2.6-0.3,3.9-0.8
			c1.2-0.6,2.1-1.3,2.8-2.3c0.3-0.5,0.6-1,0.8-1.5c0.2-0.5,0.3-1,0.4-1.5c0.1-0.2,0.1-0.6,0.2-1c0.1-0.4,0.1-0.9,0.2-1.3
			c0.1-0.4,0.1-0.8,0.1-1.2c0-0.3,0-0.6,0-0.7c0-0.8-0.1-1.6-0.1-2.4c-0.1-0.8-0.1-1.6-0.2-2.4c-0.1-1.2-0.3-2.3-0.7-3.4
			c-0.3-1.1-0.8-2.2-1.3-3.2c-0.3-0.6-0.7-1.1-1.2-1.6c-0.5-0.5-1.1-0.9-1.8-1.3c-0.7-0.4-1.4-0.7-2.1-1c-0.8-0.2-1.5-0.4-2.2-0.4
			h-0.2c-0.7,0-1,0.3-1,0.9l0.1,2.2c0.1,1.8,0.1,3.6,0.2,5.5s0.1,3.6,0.2,5.5c0,0.5,0.1,1,0.1,1.5s0,1,0,1.5l-0.1,4v4.2
			c0,0.3,0.1,0.5,0.2,0.7c0.1,0.2,0.4,0.2,0.8,0.3L707.1,578.5z"/>
	</g>
	<g>
		<g>
			<path class="st5" d="M740.5,516.5c-0.7-0.1-1.3-0.1-2,0c0.1,0-0.5,9.5,0,10c2.3,2.4,8.1,2.6,9-1c0.9-3.5,0.4-8.3,0.1-11.9
				c-1-11.5-12.1-17.1-22.6-15.4c-5.5,0.9-10.5,4.3-14.9,7.6c-6.1,4.5-12,9.3-18.1,13.8c-11.9,8.6-24.2,16.6-36.9,23.9
				c-51.8,29.8-109.9,48.7-169.4,54.9c-8.1,0.8-16.3,1.5-24.5,1.8c-8.3,0.4-17.2,1.2-25.5,0c-5.5-0.8-10.9-3.4-13.5-8.5
				c-0.3-0.7-0.5-1.9-0.9-2.4c-0.3-1.4-0.4-0.7-0.2,2.1c-0.2,2.8-0.2,3.5,0.1,2c0.7-1.1,0.9-3,1.5-4.2c1.8-3.5,4.7-6.2,7.9-8.4
				c1.6-1.1-1.5-9,0-10c-9.3,6.4-10.4,15-9.8,25.5c0.7,12.8,14.2,14.4,24.2,14.4c28.5-0.2,56.9-3.3,84.8-9.2
				c55.7-11.8,109.1-34.8,155.8-67.4c6.5-4.5,12.8-9.2,19-14.1c5.6-4.4,11.6-9.6,18.6-11.4c11-2.7,22.9,3.1,24.2,15c0-0.5,0-1,0-1.5
				c0,0.3,0,0.7,0,1c0-2.8,0-5.7,0-8.5c-0.5,4.3-6.4,4.9-9.1,1.9c0,3.3,0,6.7,0,10c0.7-0.1,1.3-0.1,2,0
				C740.4,526.5,740.8,516.5,740.5,516.5L740.5,516.5z"/>
		</g>
	</g>
</g>
</svg>
