<?xml version="1.0" encoding="utf-8"?>
<!-- Generator: Adobe Illustrator 22.0.1, SVG Export Plug-In . SVG Version: 6.00 Build 0)  -->
<svg version="1.1" xmlns="http://www.w3.org/2000/svg" xmlns:xlink="http://www.w3.org/1999/xlink" x="0px" y="0px"
	 viewBox="0 0 248 248" style="enable-background:new 0 0 248 248;" xml:space="preserve">
<style type="text/css">
	.st0{fill:url(#XMLID_5_);stroke:#FFFFFF;stroke-miterlimit:10;}
	.st1{filter:url(#Adobe_OpacityMaskFilter);}
	.st2{opacity:0.22;mask:url(#XMLID_6_);fill:#FF855A;}
	.st3{fill:#FF855A;stroke:#FFFFFF;stroke-miterlimit:10;}
	.st4{opacity:0.22;}
	.st5{fill:#FFDFD4;}
	.st6{fill:#D6A496;}
	.st7{fill:#FFFFFF;}
</style>
<g id="Calque_4">
	<linearGradient id="XMLID_5_" gradientUnits="userSpaceOnUse" x1="122.5" y1="11.5" x2="122.5" y2="232.5">
		<stop  offset="0" style="stop-color:#FE7240"/>
		<stop  offset="0.2299" style="stop-color:#FC7343"/>
		<stop  offset="0.4298" style="stop-color:#F6744E"/>
		<stop  offset="0.6187" style="stop-color:#EC7760"/>
		<stop  offset="0.8007" style="stop-color:#DD7B79"/>
		<stop  offset="0.9763" style="stop-color:#CB8099"/>
		<stop  offset="0.9944" style="stop-color:#C9819D"/>
	</linearGradient>
	<path id="XMLID_1_" class="st0" d="M155.3,232.5H89.7c-44.3,0-80.2-35.9-80.2-80.2V91.7c0-44.3,35.9-80.2,80.2-80.2h65.7
		c44.3,0,80.2,35.9,80.2,80.2v60.7C235.5,196.6,199.6,232.5,155.3,232.5z"/>
	<defs>
		<filter id="Adobe_OpacityMaskFilter" filterUnits="userSpaceOnUse" x="8.5" y="11.5" width="226" height="208">
			
				<feColorMatrix  type="matrix" values="-1 0 0 0 1  0 -1 0 0 1  0 0 -1 0 1  0 0 0 1 0" color-interpolation-filters="sRGB" result="source"/>
			<feFlood  style="flood-color:white;flood-opacity:1" result="back"/>
			<feBlend  in="source" in2="back" mode="normal"/>
		</filter>
	</defs>
	<mask maskUnits="userSpaceOnUse" x="8.5" y="11.5" width="226" height="208" id="XMLID_6_">
		<g class="st1">
		</g>
	</mask>
	<path id="XMLID_2_" class="st2" d="M152.5,219.5h-66c-44.3,0-78-22.9-78-67.2V91.7c0-44.3,35.9-80.2,80.2-80.2h65.7
		c44.3,0,80.2,35.9,80.2,80.2v60.7C234.5,196.6,196.8,219.5,152.5,219.5z"/>
	<path class="st3" d="M151.5,184.5"/>
</g>
<g id="Calque_6">
	<g class="st4">
		<g>
			<path d="M81.3,203.1c1.4-10,2.8-20.1,3-30.3c0-3.2,0.4-7.6-1.3-10.5c-0.3-0.4-0.8-0.7-1-1.1c-0.9-1.4-2.1-1-1.7-3.7
				c0.2-1.4,2.1-4.4,3-5.4c4.5-5.5,12.4-3.3,16.1,1.8c5.7,7.8,0.9,18.8-5.5,24.6c-2.9,2.7-6.9,3.2-9.8,5.6c-1.6,1.4-3,4-1.1,5.8
				c2.6,2.4,10.8,1.1,14,0.9c5.4-0.4,11.5-0.5,16.4-3c6.5-3.2,8.6-11.5,9.2-18.1c0.2-2.3-0.7-8.5,3.6-7.2c1.9,0.6,2.2,3.1,4.2,3.9
				c2.1,0.9,4.4,0,5.8-1.6c3.1-3.5,1.7-11.1,1.8-15.3c0.1-3.8,0.2-7.6,0.3-11.4c0-1.4,0.1-2.8,0.1-4.1c0-1.4,0.6-2.1-0.2-1.1
				c-0.4,0.1-0.9,0.3-1.3,0.4c1.6,1.1,2.6,6.8,3.2,8.4c1.1,2.7,2.2,5.4,3.5,8c2,4,4.2,9.6,8.3,12c7.5,4.4,12.3-5,13.2-10.9
				c1-6.2,0.9-12.6,0.1-18.8c-0.7-5.7-3.1-11.1-3.9-16.7c-1.4-9.5,9.6-7.7,11.1-0.1c0.7,3.7-0.7,7.2-2.4,10.5
				c-0.8,1.5-2,2.8-1.9,4.6c0,0.3,0.2,0.4,0.4,0.5c1.7,0.6,3.8,0.2,5.6,0.8c2.8,0.9,5.3,2.4,7.7,4c4.2,2.8,8.1,6,12,9.1
				c4.3,3.4,4.9,7.7,5.7,13c1.1,6.9,2.2,13.6,4.7,20.1c0.4,1.1,2.5-1,2.1-2.1c-3-7.9-3.6-16.1-5.4-24.3c-1-4.6-2.6-7-6.2-9.8
				c-4.6-3.7-9.2-7.6-14.5-10.5c-2-1.1-4.2-2.2-6.4-2.6c-0.6-0.1-1.7,0-2.1-0.3c-1.5-0.8-0.5,0.5-0.9-0.7c-0.1-0.5,1.4-2.6,1.7-3.1
				c2-4.3,3.3-9.6,0.9-14.1c-2.1-3.9-6.8-6-10.7-3.5c-2.9,1.9-4.2,5-4,8.4c0.2,2.8,1.3,5.5,2,8.2c1.3,4.5,2.1,9.2,2.5,13.8
				c0.4,5.1,0.6,11.4-0.9,16.4c-2.7,9.1-9.4,6.7-13.2,0.7c-2.4-3.9-4.4-8.1-6.1-12.3c-0.9-2.1-1.7-4.3-2.5-6.5
				c-0.5-1.5-0.6-3.7-2-4.7c-0.4-0.3-1,0.1-1.3,0.4c-2.5,2.8-1.3,8.9-1.3,12.4c-0.1,3.5-0.2,7.1-0.2,10.6c0,2.1,0.5,5.4-0.2,7.5
				c-2,6.4-5.5-1.1-7.8-1.9c-2.5-0.9-5.2,0.7-6.4,2.9c-1.7,3.2-0.7,7.9-1.3,11.5c-0.5,2.5-1.2,5.2-2.5,7.5c-2.6,4.4-7.3,5.2-12,5.8
				c-3.1,0.4-6.2,0.7-9.4,0.9c-1.4,0.1-8.6,1.1-9.8-0.2c-2.5-2.7,2.7-3.9,4-4.6c1.6-0.9,3.1-2.1,4.5-3.3c5.2-4.8,9.3-12,9.3-19.3
				c0.1-6.5-4.5-14.2-11.6-14.7c-3.4-0.2-7.4,1.4-9.7,3.8c-2.1,2.2-4.8,6.2-4.9,9.3c0,2.6,2,3.4,3.1,5.3c0.9,1.6,0.9,4,1,5.7
				c0.6,11.2-1.4,22.7-2.9,33.7C78.8,205.8,81.1,204.2,81.3,203.1L81.3,203.1z"/>
		</g>
	</g>
	<g class="st4">
		<g>
			<path d="M89.1,184.7c-3.7-8.2-5.9-17.8-4.4-26.9c0.5-3.1,1.7-6.7,4.4-8.6c1.4-1,3-1.4,4.7-1.2c0.9,0.1,1.7,0.6,2.5,0.8
				c2.7,1.5,1.2-0.2-4.3-4.8c-4.9-5.8-6.2-7.1-4.2-3.9c7.2,16.8,0,35.5-17.9,41.2c0.6-0.2,6.2,6.6,6.9,7.3c1.6,1.7,3.3,3.4,4.9,5.1
				c0.4,0.4,1.5,2,2.1,2.1c13.9,1.9,33.1,2.3,36.6-15.1c3.1-15.3-1.8-33.4-7.7-47.5c-1.1-2.5-5-5.3-6.9-7.3
				c-1.6-1.7-3.3-3.4-4.9-5.1c-0.4-0.4-2-1.5-2.1-2.1c3.9,18.2,9.9,35.8,17.9,52.6c1.2,2.6,4.9,5.2,6.9,7.3c0.8,0.9,7.2,6,7,7.1
				c3.7-18.2,7.3-36.3,11-54.5c-4.6-4.8-9.3-9.6-13.9-14.4c-1,6.7-1.3,13.4-0.7,20.2c0.5,5.4,1.1,12,4.2,16.6
				c3.4,5,8.5,9.3,12.8,13.5c3.4,3.5,6.9,6.4,11.9,3.6c4.8-2.7,6.2-8.4,6.8-13.5c0.9-6.7,1-13.6,0.3-20.3c-0.6-6-3-13.1,0.5-18.6
				c3-4.7,8.6-4.5,12.6-1.3c-4.6-4.7-9.1-9.4-13.7-14.1c6.5,7.2,0.5,16.3-6.5,20c0.3-0.1,6.3,6.7,6.9,7.3c0.7,0.7,6.2,7.4,7,7.1
				c4.7-1.8,9.7-2,14.6-0.7c2.8,0.8,4.7,2.3,7.2,3.5c-3.4-3.5-6.9-7-10.3-10.6c0.4,0.6,0.8,1.2,1.1,1.8c0.7,1.3,1.2,2.6,1.6,4
				c1.7,5.3,2.1,10.9,3.2,16.3c1.3,6.7,3.1,13.2,4.7,19.8c0.5,2.2,5.3,5.6,6.9,7.3c1.6,1.7,3.3,3.4,4.9,5.1c0.4,0.4,2,1.5,2.1,2.1
				c-2-8.3-4.2-16.6-5.5-25c-1.1-7-2.2-13.9-6.9-19.4c-9.6-11-21.1-24.9-37.4-18.6c4.6,4.8,9.3,9.6,13.9,14.4
				c4.3-2.3,8.2-5.9,9.1-10.9c0.8-5-1.6-8.1-4.8-11.5c-4.7-4.9-17.1-22.3-24.5-10.9c-3.2,5-1.4,11.3-0.7,16.7
				c0.7,5.8,0.8,11.7,0.4,17.6c-0.4,5.1-0.8,11.2-4.2,15.4c-3.2,3.9-8.2,5-12.2,1.9c2.3,2.4,4.7,4.7,7,7.1c-0.3-0.3-0.6-0.6-0.9-0.9
				c2.3,2.4,4.6,4.8,6.9,7.3c-3.6-4.7-4.3-11-4.9-16.7c-0.7-7-0.4-14.1,0.6-21.1c0.2-1.2-6-6.3-6.9-7.3c-0.8-0.9-7.2-6-7-7.1
				c-3.7,18.2-7.3,36.3-11,54.5c4.6,4.8,9.3,9.6,13.9,14.4c-8-16.8-14-34.4-17.9-52.6c-4.6-4.8-9.3-9.6-13.9-14.4
				c5.9,14.1,10.8,32.2,7.7,47.5c-3.5,17.4-22.7,17-36.6,15.1c4.6,4.8,9.3,9.6,13.9,14.4c9.6-3.1,17.4-10.5,20-20.4
				c1.4-5.3,1.3-11.1-0.3-16.4c-1.6-5.2-4.9-8.6-8.6-12.4c-5-5.2-16.4-20.5-22.6-7.8c-4.6,9.4-1.1,22.8,2.9,31.7
				c1.2,2.6,4.9,5.2,6.9,7.3C84,179.6,88,182.1,89.1,184.7L89.1,184.7z"/>
		</g>
	</g>
	<g class="st4">
		<g>
			<path d="M98,64.4c-7.1-1.2-15.6-2.4-21.2,3.3c-5.1,5.1-2.7,11.8,1.5,16.6c5.4,6.1,11.1,12,17.1,17.4c0.9,0.8,1.7,1.5,2.5,2.3
				c-10.2-11-13.3-14.2-9.2-9.4c1.3,1.6,2.5,3.2,3.7,4.9c1.9,2.8,3.5,5.8,4.9,8.9c5.7,13.1,6.3,27.9,1.6,41.3
				c-2.3,6.7-5.9,12.9-10.4,18.3c-2.4,2.8-5.2,5.7-8.8,6.9c-1.5,0.5-3,0.7-4.6,0.5c-0.9-0.1-1.8-0.4-2.7-0.9c-5.3-3.2-2.4,0,8.5,9.7
				c0.3,0.3,0.6,0.7,0.9,1c-19.9-24.7-5.5-61.6,24.4-69c-0.7,0.2-6.2-6.5-6.9-7.3c-0.8-0.9-5.9-7.4-7-7.1
				c-16.9,4.2-30.5,18-33.1,35.4c-1.4,9,0.1,18.4,4.2,26.5c4.3,8.6,12.2,15.8,19.2,22.3c16,14.9,30.6-19.7,32.6-31.4
				c3-17.8-3.1-35.7-15.3-48.8c-4.4-4.7-8.9-9.4-13.4-13.9c-1.8-1.8-3.7-3.6-5.6-5.3c3,3,6.1,6,9.1,9c-0.3-0.5-0.6-1-0.9-1.5
				c-0.6-1.7-1.3-3.1-1.3-4.9c-0.4-12.6,16-11.9,24.2-10.6c-0.3,0-2.1-2.3-2-2.2c-1.6-1.7-3.3-3.4-4.9-5.1c-1.6-1.7-3.3-3.4-4.9-5.1
				C99.6,66,98.6,64.5,98,64.4L98,64.4z"/>
		</g>
	</g>
</g>
<g id="S">
	<g id="Calque_2">
		<g>
			<g>
				<path class="st5" d="M92,54.4c-7.1-1.2-15.6-2.4-21.2,3.3c-5.1,5.1-2.7,11.8,1.5,16.6c5.4,6.1,11.1,12,17.1,17.4
					c0.9,0.8,1.7,1.5,2.5,2.3c-10.2-11-13.3-14.2-9.2-9.4c1.3,1.6,2.5,3.2,3.7,4.9c1.9,2.8,3.5,5.8,4.9,8.9
					c5.7,13.1,6.3,27.9,1.6,41.3c-2.3,6.7-5.9,12.9-10.4,18.3c-2.4,2.8-5.2,5.7-8.8,6.9c-1.5,0.5-3,0.7-4.6,0.5
					c-0.9-0.1-1.8-0.4-2.7-0.9c-5.3-3.2-2.4,0,8.5,9.7c0.3,0.3,0.6,0.7,0.9,1c-19.9-24.7-5.5-61.6,24.4-69c-0.7,0.2-6.2-6.5-6.9-7.3
					c-0.8-0.9-5.9-7.4-7-7.1c-16.9,4.2-30.5,18-33.1,35.4c-1.4,9,0.1,18.4,4.2,26.5c4.3,8.6,12.2,15.8,19.2,22.3
					c16,14.9,30.6-19.7,32.6-31.4c3-17.8-3.1-35.7-15.3-48.8C89.4,91.2,85,86.5,80.4,82c-1.8-1.8-3.7-3.6-5.6-5.3c3,3,6.1,6,9.1,9
					c-0.3-0.5-0.6-1-0.9-1.5c-0.6-1.7-1.3-3.1-1.3-4.9c-0.4-12.6,16-11.9,24.2-10.6c-0.3,0-2.1-2.3-2-2.2c-1.6-1.7-3.3-3.4-4.9-5.1
					c-1.6-1.7-3.3-3.4-4.9-5.1C93.6,56,92.6,54.5,92,54.4L92,54.4z"/>
			</g>
		</g>
		<g>
			<g>
				<path class="st6" d="M91.1,179.7c-3.7-8.2-5.9-17.8-4.4-26.9c0.5-3.1,1.7-6.7,4.4-8.6c1.4-1,3-1.4,4.7-1.2
					c0.9,0.1,1.7,0.6,2.5,0.8c2.7,1.5,1.2-0.2-4.3-4.8c-4.9-5.8-6.2-7.1-4.2-3.9c7.2,16.8,0,35.5-17.9,41.2c0.6-0.2,6.2,6.6,6.9,7.3
					c1.6,1.7,3.3,3.4,4.9,5.1c0.4,0.4,1.5,2,2.1,2.1c13.9,1.9,33.1,2.3,36.6-15.1c3.1-15.3-1.8-33.4-7.7-47.5
					c-1.1-2.5-5-5.3-6.9-7.3c-1.6-1.7-3.3-3.4-4.9-5.1c-0.4-0.4-2-1.5-2.1-2.1c3.9,18.2,9.9,35.8,17.9,52.6c1.2,2.6,4.9,5.2,6.9,7.3
					c0.8,0.9,7.2,6,7,7.1c3.7-18.2,7.3-36.3,11-54.5c-4.6-4.8-9.3-9.6-13.9-14.4c-1,6.7-1.3,13.4-0.7,20.2c0.5,5.4,1.1,12,4.2,16.6
					c3.4,5,8.5,9.3,12.8,13.5c3.4,3.5,6.9,6.4,11.9,3.6c4.8-2.7,6.2-8.4,6.8-13.5c0.9-6.7,1-13.6,0.3-20.3c-0.6-6-3-13.1,0.5-18.6
					c3-4.7,8.6-4.5,12.6-1.3c-4.6-4.7-9.1-9.4-13.7-14.1c6.5,7.2,0.5,16.3-6.5,20c0.3-0.1,6.3,6.7,6.9,7.3c0.7,0.7,6.2,7.4,7,7.1
					c4.5-1.7,9.1-1.4,13.5,0.5c1.1,0.5,2.1,1.1,3.1,1.7c5.4,3.5-1.4,3.1-7.1-7.9c1.2,2.4,2.7,4.4,3.8,6.9c4.4,10.4,6.2,22.1,8.8,33
					c0.5,2.2,5.3,5.6,6.9,7.3c1.6,1.7,3.3,3.4,4.9,5.1c0.4,0.4,2,1.5,2.1,2.1c-3.3-14-4.9-31.4-14.7-42.6
					c-5.1-5.9-10.6-12.3-16.8-17c-5.3-4.1-12-5.9-18.4-3.5c4.6,4.8,9.3,9.6,13.9,14.4c4.3-2.3,8.2-5.9,9.1-10.9
					c0.8-5-1.6-8.1-4.8-11.5c-4.7-4.9-17.1-22.3-24.5-10.9c-3.2,5-1.4,11.3-0.7,16.7c0.7,5.8,0.8,11.7,0.4,17.6
					c-0.4,5.1-0.8,11.2-4.2,15.4c-3.2,3.9-8.2,5-12.2,1.9c2.3,2.4,4.7,4.7,7,7.1c-0.3-0.3-0.6-0.6-0.9-0.9c2.3,2.4,4.6,4.8,6.9,7.3
					c-3.6-4.7-4.3-11-4.9-16.7c-0.7-7-0.4-14.1,0.6-21.1c0.2-1.2-6-6.3-6.9-7.3c-0.8-0.9-7.2-6-7-7.1c-3.7,18.2-7.3,36.3-11,54.5
					c4.6,4.8,9.3,9.6,13.9,14.4c-8-16.8-14-34.4-17.9-52.6c-4.6-4.8-9.3-9.6-13.9-14.4c5.9,14.1,10.8,32.2,7.7,47.5
					c-3.5,17.4-22.7,17-36.6,15.1c4.6,4.8,9.3,9.6,13.9,14.4c9.6-3.1,17.4-10.5,20-20.4c1.4-5.3,1.3-11.1-0.3-16.4
					c-1.6-5.2-4.9-8.6-8.6-12.4c-5-5.2-16.4-20.5-22.6-7.8c-4.6,9.4-1.1,22.8,2.9,31.7c1.2,2.6,4.9,5.2,6.9,7.3
					C86,174.6,90,177.1,91.1,179.7L91.1,179.7z"/>
			</g>
		</g>
		<g>
			<g>
				<path class="st7" d="M75.3,193.1c1.4-10,2.8-20.1,3-30.3c0-3.2,0.4-7.6-1.3-10.5c-0.3-0.4-0.8-0.7-1-1.1c-0.9-1.4-2.1-1-1.7-3.7
					c0.2-1.4,2.1-4.4,3-5.4c4.5-5.5,12.4-3.3,16.1,1.8c5.7,7.8,0.9,18.8-5.5,24.6c-2.9,2.7-6.9,3.2-9.8,5.6c-1.6,1.4-3,4-1.1,5.8
					c2.6,2.4,10.8,1.1,14,0.9c5.4-0.4,11.5-0.5,16.4-3c6.5-3.2,8.6-11.5,9.2-18.1c0.2-2.3-0.7-8.5,3.6-7.2c1.9,0.6,2.2,3.1,4.2,3.9
					c2.1,0.9,4.4,0,5.8-1.6c3.1-3.5,1.7-11.1,1.8-15.3c0.1-3.8,0.2-7.6,0.3-11.4c0-1.4,0.1-2.8,0.1-4.1c0-1.4,0.6-2.1-0.2-1.1
					c-0.4,0.1-0.9,0.3-1.3,0.4c1.6,1.1,2.6,6.8,3.2,8.4c1.1,2.7,2.2,5.4,3.5,8c2,4,4.2,9.6,8.3,12c7.5,4.4,12.3-5,13.2-10.9
					c1-6.2,0.9-12.6,0.1-18.8c-0.7-5.7-3.1-11.1-3.9-16.7c-1.4-9.5,9.6-7.7,11.1-0.1c0.7,3.7-0.7,7.2-2.4,10.5
					c-0.8,1.5-2,2.8-1.9,4.6c0,0.3,0.2,0.4,0.4,0.5c2,0.8,4.1,0.6,6.2,1.6c2.6,1.3,4.9,3,7.2,4.7c4.6,3.3,9,6.3,13.9,9
					c9.9,5.5,8.9,21.7,8.4,31.1c-0.1,1.8,2.2,0.1,2.2-1c0.5-9.4,1.4-24.6-6.9-31.3c-1.7-1.3-3.8-2-5.6-3.1c-3-1.8-5.8-3.9-8.6-5.9
					c-2.4-1.8-4.8-3.5-7.4-5c-1.1-0.6-2.2-1.2-3.3-1.7c-0.7-0.3-2.7-0.4-3.1-0.8c-0.9-0.7-0.3-0.8,0.4-2.3c0.7-1.5,1.4-2.9,1.9-4.4
					c0.9-2.6,1.3-5.3,0.8-8c-0.7-4-4.3-8.5-8.9-8c-3.7,0.4-6.5,4.4-6.8,7.8c-0.3,2.5,0.5,4.9,1.1,7.3c1.4,4.6,2.5,9.1,3.1,13.9
					c0.6,5.5,0.7,11.1-0.1,16.6c-0.6,4.2-2.9,10.5-8.3,8.6c-2.1-0.7-3.5-2.5-4.7-4.2c-2.6-3.8-4.6-8.3-6.5-12.5
					c-0.9-2.1-1.8-4.3-2.6-6.5c-0.6-1.7-0.7-4.5-2.3-5.5c-0.4-0.3-1,0.1-1.3,0.4c-2.5,2.8-1.3,8.9-1.3,12.4
					c-0.1,3.5-0.2,7.1-0.2,10.6c0,2.1,0.5,5.4-0.2,7.5c-2,6.4-5.5-1.1-7.8-1.9c-2.5-0.9-5.2,0.7-6.4,2.9c-1.7,3.2-0.7,7.9-1.3,11.5
					c-0.5,2.5-1.2,5.2-2.5,7.5c-2.6,4.4-7.3,5.2-12,5.8c-3.1,0.4-6.2,0.7-9.4,0.9c-1.4,0.1-8.6,1.1-9.8-0.2c-2.5-2.7,2.7-3.9,4-4.6
					c1.6-0.9,3.1-2.1,4.5-3.3c5.2-4.8,9.3-12,9.3-19.3c0.1-6.5-4.5-14.2-11.6-14.7c-3.4-0.2-7.4,1.4-9.7,3.8
					c-2.1,2.2-4.8,6.2-4.9,9.3c0,2.6,2,3.4,3.1,5.3c0.9,1.6,0.9,4,1,5.7c0.6,11.2-1.4,22.7-2.9,33.7
					C72.8,195.8,75.1,194.2,75.3,193.1L75.3,193.1z"/>
			</g>
		</g>
	</g>
</g>
<g id="Calque_3">
</g>
<g id="Calque_5">
</g>
</svg>
