<?xml version="1.0" encoding="utf-8"?>
<!-- Generator: Adobe Illustrator 22.0.1, SVG Export Plug-In . SVG Version: 6.00 Build 0)  -->
<svg version="1.1" xmlns="http://www.w3.org/2000/svg" xmlns:xlink="http://www.w3.org/1999/xlink" x="0px" y="0px"
	 viewBox="0 0 248 248" style="enable-background:new 0 0 248 248;" xml:space="preserve">
<style type="text/css">
	.st0{fill:#FFA180;}
	.st1{fill:#FFFFFF;}
</style>
<g id="Calque_3">
	<path class="st0" d="M160.4,220H87.6C55.2,220,29,193.8,29,161.4V80c0-27.6,22.4-50,50-50h81.4c32.4,0,58.6,26.2,58.6,58.6v72.8
		C219,193.8,192.8,220,160.4,220z"/>
</g>
<g id="S">
	<g id="Calque_2">
		<g>
			<g>
				<path class="st1" d="M92,54.4c-7.1-1.2-15.6-2.4-21.2,3.3c-5.1,5.1-2.7,11.8,1.5,16.6c5.4,6.1,11.1,12,17.1,17.4
					c0.9,0.8,1.7,1.5,2.5,2.3c-10.2-11-13.3-14.2-9.2-9.4c1.3,1.6,2.5,3.2,3.7,4.9c1.9,2.8,3.5,5.8,4.9,8.9
					c5.7,13.1,6.3,27.9,1.6,41.3c-2.3,6.7-5.9,12.9-10.4,18.3c-2.4,2.8-5.2,5.7-8.8,6.9c-1.5,0.5-3,0.7-4.6,0.5
					c-0.9-0.1-1.8-0.4-2.7-0.9c-5.3-3.2-2.4,0,8.5,9.7c0.3,0.3,0.6,0.7,0.9,1c-19.9-24.7-5.5-61.6,24.4-69c-0.7,0.2-6.2-6.5-6.9-7.3
					c-0.8-0.9-5.9-7.4-7-7.1c-16.9,4.2-30.5,18-33.1,35.4c-1.4,9,0.1,18.4,4.2,26.5c4.3,8.6,12.2,15.8,19.2,22.3
					c16,14.9,30.6-19.7,32.6-31.4c3-17.8-3.1-35.7-15.3-48.8C89.4,91.2,85,86.5,80.4,82c-1.8-1.8-3.7-3.6-5.6-5.3c3,3,6.1,6,9.1,9
					c-0.3-0.5-0.6-1-0.9-1.5c-0.6-1.7-1.3-3.1-1.3-4.9c-0.4-12.6,16-11.9,24.2-10.6c-0.3,0-2.1-2.3-2-2.2c-1.6-1.7-3.3-3.4-4.9-5.1
					c-1.6-1.7-3.3-3.4-4.9-5.1C93.6,56,92.6,54.5,92,54.4L92,54.4z"/>
			</g>
		</g>
		<g>
			<g>
				<path d="M91.1,179.7c-3.7-8.2-5.9-17.8-4.4-26.9c0.5-3.1,1.7-6.7,4.4-8.6c1.4-1,3-1.4,4.7-1.2c0.9,0.1,1.7,0.6,2.5,0.8
					c2.7,1.5,1.2-0.2-4.3-4.8c-4.9-5.8-6.2-7.1-4.2-3.9c7.2,16.8,0,35.5-17.9,41.2c0.6-0.2,6.2,6.6,6.9,7.3c1.6,1.7,3.3,3.4,4.9,5.1
					c0.4,0.4,1.5,2,2.1,2.1c13.9,1.9,33.1,2.3,36.6-15.1c3.1-15.3-1.8-33.4-7.7-47.5c-1.1-2.5-5-5.3-6.9-7.3
					c-1.6-1.7-3.3-3.4-4.9-5.1c-0.4-0.4-2-1.5-2.1-2.1c3.9,18.2,9.9,35.8,17.9,52.6c1.2,2.6,4.9,5.2,6.9,7.3c0.8,0.9,7.2,6,7,7.1
					c3.7-18.2,7.3-36.3,11-54.5c-4.6-4.8-9.3-9.6-13.9-14.4c-1,6.7-1.3,13.4-0.7,20.2c0.5,5.4,1.1,12,4.2,16.6
					c3.4,5,8.5,9.3,12.8,13.5c3.4,3.5,6.9,6.4,11.9,3.6c4.8-2.7,6.2-8.4,6.8-13.5c0.9-6.7,1-13.6,0.3-20.3c-0.6-6-3-13.1,0.5-18.6
					c3-4.7,8.6-4.5,12.6-1.3c-4.6-4.7-9.1-9.4-13.7-14.1c6.5,7.2,0.5,16.3-6.5,20c0.3-0.1,6.3,6.7,6.9,7.3c0.7,0.7,6.2,7.4,7,7.1
					c4.5-1.7,9.1-1.4,13.5,0.5c1.1,0.5,2.1,1.1,3.1,1.7c5.4,3.5-1.4,3.1-7.1-7.9c1.2,2.4,2.7,4.4,3.8,6.9c4.4,10.4,6.2,22.1,8.8,33
					c0.5,2.2,5.3,5.6,6.9,7.3c1.6,1.7,3.3,3.4,4.9,5.1c0.4,0.4,2,1.5,2.1,2.1c-3.3-14-4.9-31.4-14.7-42.6
					c-5.1-5.9-10.6-12.3-16.8-17c-5.3-4.1-12-5.9-18.4-3.5c4.6,4.8,9.3,9.6,13.9,14.4c4.3-2.3,8.2-5.9,9.1-10.9
					c0.8-5-1.6-8.1-4.8-11.5c-4.7-4.9-17.1-22.3-24.5-10.9c-3.2,5-1.4,11.3-0.7,16.7c0.7,5.8,0.8,11.7,0.4,17.6
					c-0.4,5.1-0.8,11.2-4.2,15.4c-3.2,3.9-8.2,5-12.2,1.9c2.3,2.4,4.7,4.7,7,7.1c-0.3-0.3-0.6-0.6-0.9-0.9c2.3,2.4,4.6,4.8,6.9,7.3
					c-3.6-4.7-4.3-11-4.9-16.7c-0.7-7-0.4-14.1,0.6-21.1c0.2-1.2-6-6.3-6.9-7.3c-0.8-0.9-7.2-6-7-7.1c-3.7,18.2-7.3,36.3-11,54.5
					c4.6,4.8,9.3,9.6,13.9,14.4c-8-16.8-14-34.4-17.9-52.6c-4.6-4.8-9.3-9.6-13.9-14.4c5.9,14.1,10.8,32.2,7.7,47.5
					c-3.5,17.4-22.7,17-36.6,15.1c4.6,4.8,9.3,9.6,13.9,14.4c9.6-3.1,17.4-10.5,20-20.4c1.4-5.3,1.3-11.1-0.3-16.4
					c-1.6-5.2-4.9-8.6-8.6-12.4c-5-5.2-16.4-20.5-22.6-7.8c-4.6,9.4-1.1,22.8,2.9,31.7c1.2,2.6,4.9,5.2,6.9,7.3
					C86,174.6,90,177.1,91.1,179.7L91.1,179.7z"/>
			</g>
		</g>
		<g>
			<g>
				<path class="st1" d="M75.3,193.1c1.6-11.8,4.2-24.7,2.7-36.7c-0.2-1.7-0.5-3.3-1.6-4.7c-1.1-1.4-2.5-1.5-2.2-4.1
					c0.3-2.1,2.7-5.5,4.4-6.8c4.1-3.2,9.7-2,13.2,1.4c5.4,5.3,4.7,13.4,1.3,19.6c-1.8,3.3-4.3,6.2-7.3,8.4c-2.4,1.7-5.5,2.1-7.7,3.9
					c-1,0.9-2.1,2.4-2,3.9c0.3,2.9,3.3,2.8,5.6,2.9c7.6,0.4,17.1,0.3,24.3-2.5c5-1.9,7.7-6.4,9.2-11.3c0.8-2.6,1.2-5.3,1.4-7.9
					c0.2-2.3-0.5-4.4,1.5-5.9c2.8-2.1,3,0.3,4.7,2c2.9,2.8,7.3,1.1,8.6-2.4c1.2-3.3,0.5-7.9,0.6-11.4c0.1-2.8,2-5.7,4.8-3
					c2.9,2.8,3.8,7.8,6.6,11c3.9,4.4,9.4,4.1,12.9-0.6c4-5.4,3.7-13.9,3.5-20.3c-0.2-4.7-0.8-9.4-1.9-13.9
					c-0.7-3.1-3.9-9.2-2.7-12.4c0.8-0.6,1.6-1.3,2.4-1.9c1.3-2.1,2.8-2.5,4.7-1.1c1.1,0.6,1.9,1.3,2.6,2.3c1.5,2.1,2,4.6,1.8,7.2
					c-0.3,3.2-3.4,6.8-2,10c1.2,2.8,4.9,3.2,7.3,4.5c3.8,1.9,7.2,4.5,10.5,7.1c4.3,3.3,9.3,6.5,12.1,11.4c4.3,7.6,4.3,17.2,3.9,25.7
					c-0.1,1.8,2.2,0.1,2.2-1c0.6-11.8,0.1-25.3-9.9-33.2c-5.8-4.6-11.5-9.7-18.3-12.9c-1.3-0.6-3.4-0.9-4.5-1.8
					c-2.6-2.1-0.4-5.6,0.2-7.8c0.7-2.6,0.9-5.4,0.1-8.1c-1.6-5.5-8.1-8.9-12.7-4.6c-4.6,4.3-2.2,10.5-0.7,15.7
					c1.4,4.8,2.2,9.8,2.5,14.8c0.3,4.7,1.2,15.8-2.6,19.6c-10,10.1-11.9-12.2-18.8-13.2c-3.8-0.5-6,3-6.2,6.3
					c-0.2,2.3,1.4,16.1-4.5,12.7c-2.3-1.3-2.1-4.1-5.5-3.9c-1.8,0.1-3.4,1.2-4.4,2.7c-1.4,2.2-0.9,4.8-1,7.3c-0.3,4-0.9,8.5-3,12
					c-3.1,5.3-9.7,5.6-15.2,6.1c-2.4,0.2-4.7,0.5-7.1,0.5c-2,0.1-4.1,0.1-6.1,0c-1.8-0.1-3,0.5-2.9-1.6c0-2,1.9-2,3.5-2.8
					c1.2-0.6,2.3-1.4,3.4-2.2c2.3-1.8,4.3-3.9,5.9-6.3c6-8.5,8.5-23.6-3.6-28.4c-5.9-2.3-11.8,1.2-14.8,6.2
					c-1.4,2.3-3.4,5.1-2.3,7.9c0.6,1.6,2,2.2,2.8,3.5c1.7,2.9,1.1,7.9,1,11c-0.3,9.5-1.6,19-2.9,28.5
					C72.8,195.8,75.1,194.2,75.3,193.1L75.3,193.1z"/>
			</g>
		</g>
	</g>
</g>
</svg>
